<?xml version="1.0" encoding="UTF-8"?>
<svg width="40px" height="40px" viewBox="0 0 40 40" version="1.1" xmlns="http://www.w3.org/2000/svg" xmlns:xlink="http://www.w3.org/1999/xlink">
    <title>编组</title>
    <defs>
        <linearGradient x1="-75%" y1="-59.945%" x2="181.92%" y2="-47.435%" id="linearGradient-1">
            <stop stop-color="#DD137F" offset="0%"></stop>
            <stop stop-color="#51004D" offset="100%"></stop>
        </linearGradient>
    </defs>
    <g id="Screen" stroke="none" stroke-width="1" fill="none" fill-rule="evenodd">
        <g id="Profile" transform="translate(-219.000000, -218.000000)">
            <g id="Group" transform="translate(117.000000, 116.000000)">
                <g id="编组" transform="translate(102.000000, 102.000000)">
                    <path d="M20,40 C31.046,40 40,31.046 40,20 C40,8.954 31.046,0 20,0 C8.954,0 0,8.954 0,20 C0,31.046 8.954,40 20,40 Z" id="Path" fill="url(#linearGradient-1)"></path>
                    <path d="M27.917,14.583 L24.583,14.583 L24.062,13.288 C23.875,12.817 23.423,12.506 22.917,12.5 L17.083,12.5 C16.573,12.501 16.114,12.813 15.925,13.288 L15.417,14.583 L12.083,14.583 C10.933,14.583 10,15.516 10,16.667 L10,25.417 C10,26.567 10.933,27.5 12.083,27.5 L27.917,27.5 C28.469,27.5 28.999,27.281 29.39,26.89 C29.781,26.499 30,25.969 30,25.417 L30,16.667 C30,16.114 29.781,15.584 29.39,15.194 C28.999,14.803 28.469,14.583 27.917,14.583 Z M20,25.417 C17.584,25.417 15.625,23.458 15.625,21.042 C15.625,18.625 17.584,16.667 20,16.667 C22.416,16.667 24.375,18.625 24.375,21.042 C24.375,22.202 23.914,23.315 23.094,24.135 C22.273,24.956 21.16,25.417 20,25.417 Z M22.708,21.042 C22.708,22.537 21.496,23.75 20,23.75 C18.504,23.75 17.292,22.537 17.292,21.042 C17.292,19.546 18.504,18.333 20,18.333 C21.496,18.333 22.708,19.546 22.708,21.042 Z" id="Shape" fill="#FFFFFF"></path>
                </g>
            </g>
        </g>
    </g>
</svg>